HIERARCHY
ROOT hip
{
  OFFSET 0 0 0
  CHANNELS 6 Xposition Yposition Zposition Zrotation Yrotation Xrotation
  JOINT abdomen
  {
    OFFSET 0 20.6881 -0.73152
    CHANNELS 3 Zrotation Xrotation Yrotation
    JOINT chest
    {
      OFFSET 0 11.7043 -0.48768
      CHANNELS 3 Zrotation Xrotation Yrotation
      JOINT neck
      {
        OFFSET 0 22.1894 -2.19456
        CHANNELS 3 Zrotation Xrotation Yrotation
        JOINT head
        {
          OFFSET -0.24384 7.07133 1.2192
          CHANNELS 3 Zrotation Xrotation Yrotation
          JOINT leftEye
          {
            OFFSET 4.14528 8.04674 8.04672
            CHANNELS 3 Zrotation Xrotation Yrotation
            End Site
            {
              OFFSET 1 0 0
            }
          }
          JOINT rightEye
          {
            OFFSET -3.6576 8.04674 8.04672
            CHANNELS 3 Zrotation Xrotation Yrotation
            End Site
            {
              OFFSET 1 0 0
            }
          }
        }
      }
      JOINT rCollar
      {
        OFFSET -2.68224 19.2634 -4.8768
        CHANNELS 3 Zrotation Xrotation Yrotation
        JOINT rShldr
        {
          OFFSET -8.77824 -1.95073 1.46304
          CHANNELS 3 Zrotation Xrotation Yrotation
          JOINT rForeArm
          {
            OFFSET -28.1742 -1.7115 0.48768
            CHANNELS 3 Zrotation Xrotation Yrotation
            JOINT rHand
            {
              OFFSET -22.5879 0.773209 7.07136
              CHANNELS 3 Zrotation Xrotation Yrotation
              JOINT rThumb1
              {
                OFFSET -1.2192 -0.487915 3.41376
                CHANNELS 3 Zrotation Xrotation Yrotation
                JOINT rThumb2
                {
                  OFFSET -3.37035 -0.52449 3.41376
                  CHANNELS 3 Zrotation Xrotation Yrotation
                  End Site
                  {
                    OFFSET -1.78271 -1.18214 1.43049
                  }
                }
              }
              JOINT rIndex1
              {
                OFFSET -7.75947 0.938293 5.60832
                CHANNELS 3 Zrotation Xrotation Yrotation
                JOINT rIndex2
                {
                  OFFSET -2.54057 -0.884171 1.56538
                  CHANNELS 3 Zrotation Xrotation Yrotation
                  End Site
                  {
                    OFFSET -1.62519 -0.234802 1.16502
                  }
                }
              }
              JOINT rMid1
              {
                OFFSET -8.24714 1.18213 3.41376
                CHANNELS 3 Zrotation Xrotation Yrotation
                JOINT rMid2
                {
                  OFFSET -3.10165 -0.590103 1.0647
                  CHANNELS 3 Zrotation Xrotation Yrotation
                  End Site
                  {
                    OFFSET -2.48547 -0.328903 0.83742
                  }
                }
              }
              JOINT rRing1
              {
                OFFSET -8.82822 0.546677 1.51678
                CHANNELS 3 Zrotation Xrotation Yrotation
                JOINT rRing2
                {
                  OFFSET -2.60934 -0.819778 -0.0198488
                  CHANNELS 3 Zrotation Xrotation Yrotation
                  End Site
                  {
                    OFFSET -2.33842 -0.294052 0.168128
                  }
                }
              }
              JOINT rPinky1
              {
                OFFSET -8.27202 -0.0477905 -0.4584
                CHANNELS 3 Zrotation Xrotation Yrotation
                JOINT rPinky2
                {
                  OFFSET -1.82734 -0.647385 -0.700984
                  CHANNELS 3 Zrotation Xrotation Yrotation
                  End Site
                  {
                    OFFSET -1.69225 -0.51767 -0.607171
                  }
                }
              }
            }
          }
        }
      }
      JOINT lCollar
      {
        OFFSET 2.68224 19.2634 -4.8768
        CHANNELS 3 Zrotation Xrotation Yrotation
        JOINT lShldr
        {
          OFFSET 8.77824 -1.95073 1.46304
          CHANNELS 3 Zrotation Xrotation Yrotation
          JOINT lForeArm
          {
            OFFSET 28.1742 -1.7115 0.48768
            CHANNELS 3 Zrotation Xrotation Yrotation
            JOINT lHand
            {
              OFFSET 22.5879 0.773209 7.07136
              CHANNELS 3 Zrotation Xrotation Yrotation
              JOINT lThumb1
              {
                OFFSET 1.2192 -0.487915 3.41376
                CHANNELS 3 Zrotation Xrotation Yrotation
                JOINT lThumb2
                {
                  OFFSET 3.37035 -0.52449 3.41376
                  CHANNELS 3 Zrotation Xrotation Yrotation
                  End Site
                  {
                    OFFSET 1.78271 -1.18214 1.43049
                  }
                }
              }
              JOINT lIndex1
              {
                OFFSET 7.75947 0.938293 5.60832
                CHANNELS 3 Zrotation Xrotation Yrotation
                JOINT lIndex2
                {
                  OFFSET 2.54057 -0.884171 1.56538
                  CHANNELS 3 Zrotation Xrotation Yrotation
                  End Site
                  {
                    OFFSET 1.62519 -0.234802 1.16502
                  }
                }
              }
              JOINT lMid1
              {
                OFFSET 8.24714 1.18213 3.41376
                CHANNELS 3 Zrotation Xrotation Yrotation
                JOINT lMid2
                {
                  OFFSET 3.10165 -0.590103 1.0647
                  CHANNELS 3 Zrotation Xrotation Yrotation
                  End Site
                  {
                    OFFSET 2.48547 -0.328903 0.83742
                  }
                }
              }
              JOINT lRing1
              {
                OFFSET 8.82822 0.546677 1.51678
                CHANNELS 3 Zrotation Xrotation Yrotation
                JOINT lRing2
                {
                  OFFSET 2.60934 -0.819778 -0.0198488
                  CHANNELS 3 Zrotation Xrotation Yrotation
                  End Site
                  {
                    OFFSET 2.33842 -0.294052 0.168128
                  }
                }
              }
              JOINT lPinky1
              {
                OFFSET 8.27202 -0.0477905 -0.4584
                CHANNELS 3 Zrotation Xrotation Yrotation
                JOINT lPinky2
                {
                  OFFSET 1.82734 -0.647385 -0.700984
                  CHANNELS 3 Zrotation Xrotation Yrotation
                  End Site
                  {
                    OFFSET 1.69225 -0.51767 -0.607171
                  }
                }
              }
            }
          }
        }
      }
    }
  }
  JOINT rButtock
  {
    OFFSET -8.77824 4.35084 1.2192
    CHANNELS 3 Zrotation Xrotation Yrotation
    JOINT rThigh
    {
      OFFSET 0 -1.70687 -2.19456
      CHANNELS 3 Zrotation Xrotation Yrotation
      JOINT rShin
      {
        OFFSET 0 -36.8199 0.73152
        CHANNELS 3 Zrotation Xrotation Yrotation
        JOINT rFoot
        {
          OFFSET 0.73152 -45.1104 -5.12064
          CHANNELS 3 Zrotation Xrotation Yrotation
          End Site
          {
            OFFSET -1.1221 -3.69964 12.103
          }
        }
      }
    }
  }
  JOINT lButtock
  {
    OFFSET 8.77824 4.35084 1.2192
    CHANNELS 3 Zrotation Xrotation Yrotation
    JOINT lThigh
    {
      OFFSET 0 -1.70687 -2.19456
      CHANNELS 3 Zrotation Xrotation Yrotation
      JOINT lShin
      {
        OFFSET 0 -36.8199 0.73152
        CHANNELS 3 Zrotation Xrotation Yrotation
        JOINT lFoot
        {
          OFFSET -0.73152 -45.1104 -5.12064
          CHANNELS 3 Zrotation Xrotation Yrotation
          End Site
          {
            OFFSET 1.1221 -3.69964 12.103
          }
        }
      }
    }
  }
}
MOTION
Frames:	4
Frame Time:	0.03333
0.02323710396917674 63.04258456751516 0.08710903102316918 -2.199949026107788 -2.5526084899902344 6.55095911026001 -2.678060531616211 12.664933204650879 3.167043685913086 2.3198459148406982 -8.713501930236816 1.1416975259780884 -6.020203113555908 14.330556869506836 -2.9508838653564453 9.778205871582031 -22.39691925048828 -4.907207012176514 0.10606614500284195 0.27121734619140625 -0.06444796919822693 -0.2132694274187088 0.25995615124702454 0.3652377426624298 0.9693627953529358 -0.09758391231298447 -0.117900550365448 45.29756546020508 38.1524772644043 17.275577545166016 -27.284942626953125 -24.57586669921875 67.69390869140625 -1.9505873918533325 -8.684414863586426 -1.703399896621704 -0.4347388744354248 -0.01742982119321823 -0.14725492894649506 0.07280639559030533 -0.052745480090379715 -0.04620248079299927 -0.4874458611011505 -0.037962984293699265 -0.07130446285009384 7.7654924392700195 5.237044811248779 0.6334216594696045 -0.12406034767627716 0.6345751285552979 0.06342654675245285 2.6929099559783936 0.5897097587585449 -0.26817116141319275 0.010020481422543526 0.2212483137845993 -0.05652491748332977 10.323307991027832 1.589456558227539 -0.18646952509880066 -0.10819831490516663 0.30760622024536133 -0.15249517560005188 2.071499824523926 -1.1588319540023804 -0.48457685112953186 -0.025746583938598633 -0.3517266809940338 -0.032982271164655685 -59.558807373046875 35.550880432128906 -20.192134857177734 26.17673110961914 -23.00689125061035 -62.38386535644531 1.7912379503250122 -12.015028953552246 2.1806046962738037 0.10769014060497284 0.41460636258125305 -1.0849180221557617 -0.34423866868019104 -0.04338745400309563 0.01820172183215618 0.22042666375637054 -0.6853190064430237 0.35127419233322144 -8.057212829589844 5.351171970367432 -0.5371674299240112 -0.4857948422431946 0.18105758726596832 0.7134194374084473 -2.8977091312408447 1.3570784330368042 -0.2559977173805237 -0.2021014541387558 0.2219754457473755 -0.006391721311956644 -10.86527156829834 0.5084537863731384 0.1666354387998581 0.039012931287288666 0.33439403772354126 -0.2281533181667328 -2.2697947025299072 -1.1333301067352295 0.006803235039114952 0.0009365712176077068 0.033179108053445816 0.20292295515537262 -26.392019271850586 -49.73206329345703 -22.49553680419922 -1.9513872861862183 64.50881958007812 4.164654731750488 -4.708489894866943 -9.342836380004883 -10.576821327209473 -0.1586640477180481 0.010091866366565228 0.02777450531721115 27.165363311767578 -53.04896545410156 21.391202926635742 1.8989088535308838 65.25885009765625 -2.9653000831604004 4.498847961425781 -11.696633338928223 12.111435890197754
0.029825355032182945 61.9732433208688 0.1780362445140813 -3.7936737537384033 1.0802651643753052 11.513165473937988 -2.480269193649292 13.951740264892578 3.9112846851348877 2.599976062774658 -10.038893699645996 1.2484647035598755 -4.539860725402832 14.32373332977295 -3.181385040283203 9.5736665725708 -22.07301139831543 -4.5844340324401855 -0.021846549585461617 -0.24235880374908447 0.14912430942058563 0.26547837257385254 -0.10032624006271362 -0.1911931335926056 -0.46394601464271545 0.04752832651138306 0.5353502035140991 45.989097595214844 38.40895462036133 17.663225173950195 -26.604524612426758 -27.429594039916992 69.04845428466797 -1.0777990818023682 -10.724288940429688 -1.2096790075302124 0.490675151348114 -0.2882436215877533 0.16194482147693634 -0.028065834194421768 -0.14107981324195862 0.04623739421367645 0.3650006651878357 -0.40406107902526855 -0.002258854452520609 7.851661205291748 6.052083492279053 0.052399735897779465 -0.08120084553956985 -0.24085840582847595 -0.39435648918151855 2.9622676372528076 1.5187180042266846 0.7137914896011353 0.17596518993377686 -0.0606992207467556 -0.06528778374195099 10.222827911376953 -0.10284585505723953 0.0724143534898758 0.05794826149940491 -0.5914455056190491 0.2435779571533203 2.3109230995178223 -0.17818467319011688 0.25026291608810425 0.03467357158660889 0.2774389684200287 0.33447954058647156 -56.18123245239258 38.97069549560547 -24.746885299682617 25.81901741027832 -22.850093841552734 -64.96072387695312 1.9813553094863892 -12.200529098510742 1.7724425792694092 0.11437059193849564 -0.48160699009895325 0.9427483677864075 0.04111528396606445 -0.06930466741323471 -0.02500290609896183 -0.07240349799394608 0.2894083857536316 -0.4236218333244324 -7.345522403717041 5.60735559463501 -0.3785524368286133 0.35034066438674927 -0.1994287371635437 -0.6716594099998474 -3.087665557861328 0.5758593082427979 -0.07270020246505737 0.04181208461523056 -0.2209806889295578 0.20107710361480713 -9.619354248046875 1.0688759088516235 -0.39802056550979614 0.01603650487959385 -0.3492671847343445 -0.00771198607981205 -2.322744607925415 -0.40886223316192627 0.07421236485242844 -0.13925591111183167 -0.17356792092323303 0.2105967104434967 -25.49020767211914 -44.24738311767578 -21.169353485107422 -0.6374749541282654 64.17145538330078 2.088332176208496 -5.471282958984375 -10.44503116607666 -10.617904663085938 -0.05275154486298561 -0.052981648594141006 -0.0346352756023407 30.633562088012695 -46.62102508544922 22.660449981689453 0.9411458373069763 67.88568878173828 -2.1301767826080322 5.096795082092285 -12.440131187438965 11.773784637451172
0.04218362183996899 48.896357796353726 0.06459891531377568 -4.443052291870117 -1.8646347522735596 14.1497802734375 -0.9390708208084106 15.304004669189453 4.788381576538086 2.047849416732788 -10.787348747253418 2.480804681777954 -3.0542101860046387 14.165436744689941 -1.2312653064727783 8.187843322753906 -22.731151580810547 1.1621840000152588 0.023829661309719086 0.5681946277618408 0.8035727143287659 -0.11371161043643951 -0.4945985674858093 0.17724545300006866 -0.7584771513938904 0.27834227681159973 -0.43577060103416443 45.13738250732422 44.20068359375 17.939773559570312 -25.514402389526367 -32.53345489501953 75.56372833251953 -2.0088627338409424 -15.777883529663086 -2.222055435180664 0.12849360704421997 0.21428290009498596 0.43959784507751465 0.43588706851005554 0.7497934103012085 -0.15300555527210236 0.2894831895828247 -0.3575577437877655 -0.5870904922485352 7.118868350982666 5.126578330993652 -0.7458198070526123 0.5343999862670898 -1.1566643714904785 -0.08307632803916931 2.5856196880340576 0.9484798908233643 0.29643961787223816 -0.4662526547908783 -0.17554819583892822 0.6163445115089417 10.40552043914795 0.33131033182144165 0.08112053573131561 -0.35440149903297424 -0.8678023815155029 -0.4277951419353485 2.2404212951660156 -0.6521379947662354 0.2881476879119873 0.2862403988838196 0.02773406356573105 0.1476757675409317 -50.50611114501953 35.391075134277344 -31.043642044067383 25.364112854003906 -27.246274948120117 -69.7259750366211 2.8786847591400146 -16.770414352416992 2.294797897338867 -0.17088739573955536 -0.17634068429470062 0.7778346538543701 0.04283933341503143 0.5164048075675964 0.006031101103872061 0.2572444975376129 0.27557024359703064 -0.17495660483837128 -7.644865989685059 5.5450897216796875 -0.035399455577135086 0.2652783691883087 0.23449954390525818 -0.5342873334884644 -3.120055913925171 1.4177381992340088 -0.10788293927907944 0.10322893410921097 0.06152919679880142 0.5924890637397766 -9.829994201660156 0.721378743648529 0.5931059718132019 -0.01510568056255579 -0.18115951120853424 0.34091487526893616 -2.8082540035247803 -0.24200557172298431 0.27803856134414673 0.2533209025859833 0.08568200469017029 -0.45641055703163147 -24.749778747558594 -40.87998962402344 -20.711299896240234 -3.3292276859283447 69.16220092773438 4.404074668884277 -4.57518196105957 -14.606945037841797 -10.096038818359375 0.632556676864624 -0.28504788875579834 -0.31108614802360535 42.25617599487305 -47.189456939697266 31.275667190551758 3.176389694213867 74.85824584960938 -4.497710227966309 3.9261364936828613 -12.240912437438965 8.94822883605957
-0.13882364824136206 42.18736350297368 -0.14221393002977425 -2.978649854660034 30.063514709472656 31.396480560302734 -0.07661936432123184 16.987258911132812 7.650014877319336 -1.0344014167785645 -11.877251625061035 4.221224784851074 -1.8641135692596436 14.251941680908203 5.487808704376221 5.145481109619141 -22.846912384033203 11.340208053588867 0.4200422167778015 1.0438514947891235 1.0967191457748413 -0.11388969421386719 -1.410897970199585 -0.13569341599941254 -0.3719768822193146 1.1735759973526 -0.5098259449005127 32.46477508544922 55.20183181762695 26.07998275756836 -28.962373733520508 -43.198081970214844 86.02061462402344 -1.7135818004608154 -15.85100269317627 -0.7452847957611084 0.7499047517776489 -0.7939669489860535 0.16425348818302155 0.8168877959251404 0.6184577345848083 0.05117392912507057 0.19168448448181152 -0.4650026559829712 -0.7842050194740295 7.5738677978515625 4.847210884094238 -0.5022603869438171 0.32064417004585266 -0.7723410129547119 -0.14484922587871552 3.0879454612731934 0.799790620803833 0.476319819688797 -0.908910870552063 -0.22261279821395874 1.5754231214523315 9.994420051574707 0.8019454479217529 0.2935500741004944 -0.35309532284736633 -0.755962073802948 -0.7142872214317322 1.8867555856704712 -1.2876588106155396 0.277014821767807 0.524975061416626 -0.3574255704879761 0.44943350553512573 -48.344730377197266 25.538599014282227 -33.03900146484375 26.456174850463867 -37.34129333496094 -78.96114349365234 2.1144957542419434 -23.99104118347168 3.58079195022583 0.6490390300750732 0.10709047317504883 0.25549811124801636 0.2405605912208557 0.7375640273094177 0.08450189232826233 -0.014040370471775532 -0.23991039395332336 -1.2149542570114136 -7.894632816314697 5.980133533477783 -0.542796790599823 0.19682085514068604 0.4281311333179474 -0.16840897500514984 -3.28110671043396 1.2447233200073242 -0.36296382546424866 -0.34411656856536865 0.32945096492767334 0.2820657193660736 -9.727581024169922 0.5093674063682556 0.8707857131958008 -0.3521730303764343 0.1862855702638626 0.5108035206794739 -2.3588404655456543 -0.10761705785989761 0.4526574909687042 0.19159112870693207 -0.11077652871608734 -1.064570665359497 -38.15155792236328 -43.465721130371094 -33.79880905151367 -15.362200736999512 82.04381561279297 17.083492279052734 -4.872955322265625 -20.441692352294922 -11.233511924743652 1.262834072113037 -0.3172706365585327 -0.054174479097127914 72.08605194091797 -51.595741271972656 59.7422981262207 149.82382202148438 86.29773712158203 -150.7541961669922 -0.10560688376426697 -14.643630027770996 2.7267441749572754
